<svg width="17" height="14" viewBox="0 0 17 14" fill="none" xmlns="http://www.w3.org/2000/svg">
<path d="M11.9179 10.5343C11.9179 10.6996 11.9027 10.8628 11.8723 11.0238C11.8462 11.1804 11.807 11.3327 11.7548 11.4807H4.97995C4.92339 11.3327 4.88205 11.1804 4.85594 11.0238C4.82984 10.8628 4.81678 10.6996 4.81678 10.5343C4.81678 10.0469 4.90816 9.58788 5.09091 9.15711C5.27801 8.72634 5.53256 8.34779 5.85455 8.02145C6.18089 7.69511 6.55726 7.44056 6.98368 7.25781C7.41445 7.07071 7.87568 6.97716 8.36737 6.97716C8.8547 6.97716 9.31158 7.07071 9.738 7.25781C10.1688 7.44056 10.5473 7.69511 10.8737 8.02145C11.2 8.34779 11.4545 8.72634 11.6373 9.15711C11.8244 9.58788 11.9179 10.0469 11.9179 10.5343ZM1.54033 10.8214C1.34452 10.8214 1.177 10.7584 1.03776 10.6322C0.902875 10.5016 0.835431 10.3428 0.835431 10.1557C0.835431 9.97296 0.902875 9.81632 1.03776 9.68578C1.17265 9.55524 1.34017 9.48998 1.54033 9.48998H2.88485C3.085 9.48998 3.25253 9.55524 3.38741 9.68578C3.5223 9.81632 3.58974 9.97296 3.58974 10.1557C3.58974 10.3428 3.5223 10.5016 3.38741 10.6322C3.25253 10.7627 3.085 10.828 2.88485 10.828L1.54033 10.8214ZM4.02051 7.14685L3.0676 6.20047C2.92401 6.05688 2.85004 5.89153 2.84569 5.70443C2.84569 5.51298 2.91096 5.35416 3.04149 5.22797C3.17203 5.10179 3.33085 5.04087 3.51795 5.04522C3.70505 5.04522 3.86822 5.11484 4.00746 5.25408L4.9669 6.20699C5.10614 6.34623 5.17576 6.51158 5.17576 6.70303C5.18011 6.89013 5.11702 7.04678 4.98648 7.17296C4.8603 7.3035 4.70148 7.36659 4.51002 7.36224C4.32292 7.35789 4.15975 7.28609 4.02051 7.14685ZM11.7417 7.17296C11.6112 7.04678 11.5481 6.89013 11.5524 6.70303C11.5568 6.51158 11.6286 6.34623 11.7678 6.20699L12.7207 5.25408C12.8643 5.11484 13.0297 5.04305 13.2168 5.03869C13.4039 5.03434 13.5605 5.09744 13.6867 5.22797C13.8172 5.35851 13.8803 5.51733 13.876 5.70443C13.876 5.89153 13.8064 6.05688 13.6671 6.20047L12.7142 7.14685C12.575 7.28609 12.4096 7.35789 12.2182 7.36224C12.0311 7.36659 11.8723 7.3035 11.7417 7.17296ZM13.8434 10.8214C13.6519 10.8214 13.4866 10.7584 13.3473 10.6322C13.2124 10.5016 13.1428 10.3428 13.1385 10.1557C13.1385 9.97296 13.2081 9.81632 13.3473 9.68578C13.4866 9.55524 13.6519 9.48998 13.8434 9.48998H15.1944C15.3946 9.48998 15.5599 9.55524 15.6904 9.68578C15.8253 9.81632 15.8928 9.97296 15.8928 10.1557C15.8928 10.3428 15.8253 10.5016 15.6904 10.6322C15.5599 10.7584 15.3946 10.8214 15.1944 10.8214H13.8434ZM0.789744 14C0.576535 14 0.391608 13.9195 0.234965 13.7585C0.0783217 13.6019 0 13.4213 0 13.2168C0 13.0036 0.0761461 12.8186 0.228438 12.662C0.385082 12.5097 0.572183 12.4336 0.789744 12.4336H15.9385C16.1604 12.4336 16.3475 12.5097 16.4998 12.662C16.6521 12.8143 16.7282 12.9992 16.7282 13.2168C16.7282 13.4256 16.6499 13.6084 16.4932 13.765C16.3409 13.9217 16.156 14 15.9385 14H0.789744ZM8.36737 5.52168C8.18462 5.52168 8.02797 5.45423 7.89744 5.31935C7.7669 5.18011 7.70163 5.01476 7.70163 4.82331V2.72821L7.82564 1.6317L7.42751 2.19301L6.75524 2.91748C6.68998 2.9958 6.61601 3.06107 6.53333 3.11329C6.45066 3.16115 6.35493 3.18508 6.24615 3.18508C6.07646 3.18508 5.93287 3.12852 5.81538 3.01538C5.70225 2.8979 5.64569 2.75866 5.64569 2.59767C5.64569 2.49759 5.66962 2.40622 5.71748 2.32354C5.7697 2.23652 5.83497 2.15385 5.91329 2.07552L7.87786 0.221911C8.0345 0.0739705 8.19767 0 8.36737 0C8.53271 0 8.69588 0.0739705 8.85688 0.221911L10.8214 2.07552C10.8998 2.15385 10.9629 2.23652 11.0107 2.32354C11.0586 2.40622 11.0825 2.49759 11.0825 2.59767C11.0825 2.75866 11.026 2.8979 10.9128 3.01538C10.7997 3.12852 10.6561 3.18508 10.4821 3.18508C10.3776 3.18508 10.2841 3.16115 10.2014 3.11329C10.1187 3.06107 10.0448 2.9958 9.97949 2.91748L9.34639 2.23217L8.90909 1.6317L9.02657 2.72821L9.0331 4.82331C9.0331 5.01476 8.96783 5.18011 8.8373 5.31935C8.70676 5.45423 8.55012 5.52168 8.36737 5.52168Z" fill="white"/>
</svg>
