<svg width="17" height="14" viewBox="0 0 17 14" fill="none" xmlns="http://www.w3.org/2000/svg">
<path d="M12.1116 10.5343C12.1116 10.6996 12.0961 10.8628 12.0652 11.0238C12.0386 11.1804 11.9988 11.3327 11.9458 11.4807H5.06087C5.00338 11.3327 4.96137 11.1804 4.93484 11.0238C4.90831 10.8628 4.89504 10.6996 4.89504 10.5343C4.89504 10.0469 4.9879 9.58788 5.17362 9.15711C5.36377 8.72634 5.62245 8.34779 5.94967 8.02145C6.28131 7.69511 6.66381 7.44056 7.09715 7.25781C7.53492 7.07071 8.00364 6.97716 8.50332 6.97716C8.99857 6.97716 9.46287 7.07071 9.89622 7.25781C10.334 7.44056 10.7187 7.69511 11.0503 8.02145C11.382 8.34779 11.6407 8.72634 11.8264 9.15711C12.0165 9.58788 12.1116 10.0469 12.1116 10.5343ZM1.56535 10.8214C1.36637 10.8214 1.19612 10.7584 1.05462 10.6322C0.917545 10.5016 0.849005 10.3428 0.849005 10.1557C0.849005 9.97296 0.917545 9.81632 1.05462 9.68578C1.1917 9.55524 1.36195 9.48998 1.56535 9.48998H2.93172C3.13513 9.48998 3.30537 9.55524 3.44245 9.68578C3.57953 9.81632 3.64807 9.97296 3.64807 10.1557C3.64807 10.3428 3.57953 10.5016 3.44245 10.6322C3.30537 10.7627 3.13513 10.828 2.93172 10.828L1.56535 10.8214ZM4.08584 7.14685L3.11744 6.20047C2.97152 6.05688 2.89635 5.89153 2.89192 5.70443C2.89192 5.51298 2.95825 5.35416 3.09091 5.22797C3.22357 5.10179 3.38497 5.04087 3.57511 5.04522C3.76525 5.04522 3.93107 5.11484 4.07257 5.25408L5.0476 6.20699C5.1891 6.34623 5.25985 6.51158 5.25985 6.70303C5.26427 6.89013 5.20016 7.04678 5.0675 7.17296C4.93926 7.3035 4.77786 7.36659 4.5833 7.36224C4.39316 7.35789 4.22734 7.28609 4.08584 7.14685ZM11.9325 7.17296C11.7998 7.04678 11.7357 6.89013 11.7401 6.70303C11.7446 6.51158 11.8175 6.34623 11.959 6.20699L12.9274 5.25408C13.0734 5.11484 13.2414 5.04305 13.4315 5.03869C13.6217 5.03434 13.7809 5.09744 13.9091 5.22797C14.0417 5.35851 14.1059 5.51733 14.1014 5.70443C14.1014 5.89153 14.0307 6.05688 13.8892 6.20047L12.9208 7.14685C12.7793 7.28609 12.6113 7.35789 12.4167 7.36224C12.2266 7.36659 12.0652 7.3035 11.9325 7.17296ZM14.0683 10.8214C13.8737 10.8214 13.7057 10.7584 13.5642 10.6322C13.4271 10.5016 13.3564 10.3428 13.3519 10.1557C13.3519 9.97296 13.4227 9.81632 13.5642 9.68578C13.7057 9.55524 13.8737 9.48998 14.0683 9.48998H15.4413C15.6447 9.48998 15.8127 9.55524 15.9454 9.68578C16.0825 9.81632 16.151 9.97296 16.151 10.1557C16.151 10.3428 16.0825 10.5016 15.9454 10.6322C15.8127 10.7584 15.6447 10.8214 15.4413 10.8214H14.0683ZM0.802575 14C0.585902 14 0.397971 13.9195 0.238783 13.7585C0.0795942 13.6019 0 13.4213 0 13.2168C0 13.0036 0.0773833 12.8186 0.23215 12.662C0.391338 12.5097 0.58148 12.4336 0.802575 12.4336H16.1974C16.4229 12.4336 16.6131 12.5097 16.7678 12.662C16.9226 12.8143 17 12.9992 17 13.2168C17 13.4256 16.9204 13.6084 16.7612 13.765C16.6065 13.9217 16.4185 14 16.1974 14H0.802575ZM8.50332 0C8.68904 0 8.84822 0.0696193 8.98088 0.208858C9.11354 0.348096 9.17987 0.513442 9.17987 0.704895L9.17323 2.79347L9.05384 3.88998L9.49824 3.29604L10.1416 2.6042C10.208 2.53023 10.2831 2.46931 10.3671 2.42145C10.4512 2.36923 10.5462 2.34312 10.6524 2.34312C10.8292 2.34312 10.9752 2.39969 11.0901 2.51282C11.2051 2.62595 11.2626 2.76519 11.2626 2.93054C11.2626 3.03061 11.2383 3.12416 11.1896 3.21119C11.141 3.29386 11.0769 3.37218 10.9973 3.44615L9.00078 5.29977C8.83717 5.44771 8.67135 5.52168 8.50332 5.52168C8.33086 5.52168 8.16504 5.44771 8.00585 5.29977L6.00936 3.44615C5.92977 3.37218 5.86344 3.29386 5.81038 3.21119C5.76174 3.12416 5.73742 3.03061 5.73742 2.93054C5.73742 2.76519 5.7949 2.62595 5.90987 2.51282C6.02926 2.39969 6.17519 2.34312 6.34764 2.34312C6.45819 2.34312 6.55547 2.36923 6.63948 2.42145C6.7235 2.46931 6.79867 2.53023 6.865 2.6042L7.54819 3.32867L7.95279 3.88998L7.82677 2.79347V0.704895C7.82677 0.513442 7.89309 0.348096 8.02575 0.208858C8.15841 0.0696193 8.3176 0 8.50332 0Z" fill="white"/>
</svg>
